# xmcd
#
# Track frame offsets:
#	150
#	14633
#	36461
#	47016
#	64411
#	78260
#	92400
#	106845
#	122595
#	135008
#	150391
#	163899
#
# Disc length: 2341 seconds
# Revision: 0
# Processed by: cddbd v1.5.2PL0 Copyright (c) Steve Scherf et al.
# Submitted via: dBpowerAMP V12.0
#
DISCID=8f09230c
DTITLE=Sideline - Front and Center
DYEAR=2018
DGENRE=Bluegrass
TTITLE0=Thunder Dan
TTITLE1=Frozen in Time
TTITLE2=Old Time Way
TTITLE3=Song For a Winter's Night
TTITLE4=Bluefield WV Mtn. Girl
TTITLE5=I Long To See His Face
TTITLE6=Lysander Hayes
TTITLE7=Memories That We Shared
TTITLE8=Something Out of Nothing
TTITLE9=All Because of Me
TTITLE10=Satan's Chains
TTITLE11=Cotton Eyed Joe
EXTD=
EXTT0=
EXTT1=
EXTT2=
EXTT3=
EXTT4=
EXTT5=
EXTT6=
EXTT7=
EXTT8=
EXTT9=
EXTT10=
EXTT11=
PLAYORDER=
